<?xml version="1.0" standalone="no"?>
<!DOCTYPE svg PUBLIC "-//W3C//DTD SVG 20010904//EN"
 "http://www.w3.org/TR/2001/REC-SVG-20010904/DTD/svg10.dtd">
<svg version="1.0" xmlns="http://www.w3.org/2000/svg"
 width="223.000000pt" height="226.000000pt" viewBox="0 0 223.000000 226.000000"
 preserveAspectRatio="xMidYMid meet">
<metadata>
Created by potrace 1.16, written by Peter Selinger 2001-2019
</metadata>
<g transform="translate(0.000000,226.000000) scale(0.100000,-0.100000)"
fill="#000000" stroke="none">
<path d="M525 604 c-8 -9 -15 -33 -15 -54 0 -49 35 -79 69 -60 18 9 21 8 21
-8 0 -39 -37 -54 -65 -26 -20 20 -33 11 -15 -11 16 -20 64 -19 84 1 12 11 16
36 16 93 l0 77 -40 1 c-24 1 -46 -4 -55 -13z"/>
</g>
</svg>
